Coordinates
version=1
nRows=7
nColumns=40
inDegrees=yes

Units are S.I. units (second, meters, Newtons, ...)
Angles are in degrees.

endheader
time	pelvis_tilt	pelvis_list	pelvis_rotation	pelvis_tx	pelvis_ty	pelvis_tz	hip_flexion_r	hip_adduction_r	hip_rotation_r	knee_angle_r	knee_angle_r_beta	ankle_angle_r	subtalar_angle_r	mtp_angle_r	hip_flexion_l	hip_adduction_l	hip_rotation_l	knee_angle_l	knee_angle_l_beta	ankle_angle_l	subtalar_angle_l	mtp_angle_l	lumbar_extension	lumbar_bending	lumbar_rotation	arm_flex_r	arm_add_r	arm_rot_r	elbow_flex_r	pro_sup_r	wrist_flex_r	wrist_dev_r	arm_flex_l	arm_add_l	arm_rot_l	elbow_flex_l	pro_sup_l	wrist_flex_l	wrist_dev_l
     31.95750000	     -2.65134265	     -4.55042109	      4.95570392	      1.08099969	      0.92330515	      0.43002214	      2.62588590	     -2.21872169	    -13.67490886	     26.31132197	     26.31132197	     17.15282650	     -2.02676541	     -5.24573212	     24.06170036	     -5.32278188	     -0.49093194	     28.25671354	     28.25671354	     10.16854486	    -11.85780637	      1.84854552	     -8.60334019	      2.80692831	      3.85101549	     19.20353738	    -14.85367195	      1.03207670	     77.07006106	     44.81862680	      0.00000000	      0.00000000	     -1.89464683	    -10.11669049	    -11.85357585	     32.43390370	     46.10477117	      0.00000000	      0.00000000
     31.97057143	     -2.61814987	     -4.45934379	      4.73147166	      1.08192717	      0.92434599	      0.42745673	      3.81367194	     -2.87223262	    -13.17828237	     29.26417529	     29.26417529	     16.29590014	     -3.02817348	     -5.89486362	     23.32700527	     -5.21443660	     -0.95200497	     27.93867642	     27.93867642	     10.52163945	    -11.52822809	      1.66936688	     -8.56354518	      2.67880018	      3.87758146	     18.34343405	    -14.77624693	      1.43698040	     75.68918348	     44.85126739	      0.00000000	      0.00000000	     -1.23082384	    -10.15572092	    -11.55322141	     32.56760399	     46.07433012	      0.00000000	      0.00000000
     31.98364286	     -2.62727328	     -4.47912589	      4.51126560	      1.08275726	      0.92528924	      0.42513243	      5.08720659	     -3.28657569	    -12.43435975	     32.05290407	     32.05290407	     14.24261600	     -4.97164269	     -9.07986197	     22.64809899	     -5.22992751	     -1.38302797	     27.58442744	     27.58442744	     10.71473831	    -11.21137961	      1.12090363	     -8.33469632	      2.63899495	      3.27957406	     18.47436574	    -14.45549975	      3.08833278	     71.84479438	     44.97385756	      0.00000000	      0.00000000	     -1.21838172	    -10.77195254	     -8.67423514	     33.13157652	     45.72328740	      0.00000000	      0.00000000
     31.99671429	     -2.50739822	     -4.36282582	      4.28514135	      1.08353498	      0.92638619	      0.42278068	      6.44429967	     -3.95324432	    -11.88317125	     35.34442931	     35.34442931	     13.17247615	     -5.93629118	     -9.34089384	     21.77485942	     -5.09948167	     -1.86142702	     27.17015477	     27.17015477	     11.00459706	    -10.87997086	      1.01335115	     -8.41168423	      2.50080287	      3.29859048	     17.38334303	    -14.43223650	      3.33867435	     70.75296657	     44.99972854	      0.00000000	      0.00000000	     -0.46516030	    -10.81281477	     -8.54663338	     33.44572922	     45.72145164	      0.00000000	      0.00000000
     32.00978571	     -2.46824212	     -4.31922029	      4.05507798	      1.08420151	      0.92727936	      0.42059099	      7.97861973	     -4.46420859	    -11.17016631	     38.65556141	     38.65556141	     11.94551340	     -7.15256759	     -9.45511995	     21.01303398	     -5.02682787	     -2.25704922	     26.76261172	     26.76261172	     11.32881057	    -10.57050676	      0.83908225	     -8.33463336	      2.42397835	      3.36097239	     16.23516642	    -14.45296776	      3.63405813	     69.08556262	     45.04343513	      0.00000000	      0.00000000	      0.33631553	    -10.88325352	     -8.29326133	     33.75584708	     45.70454724	      0.00000000	      0.00000000
     32.02285714	     -2.37039905	     -4.27496777	      3.84469890	      1.08481492	      0.92816731	      0.41850075	      9.48285302	     -4.91769510	    -10.43571712	     41.89876412	     41.89876412	     10.65185549	     -8.35674974	     -9.37811882	     20.21152906	     -4.95168408	     -2.63825093	     26.38090455	     26.38090455	     11.63963245	    -10.29385754	      0.65197001	     -8.33343193	      2.36786607	      3.32548949	     15.14158879	    -14.42271700	      3.93916958	     67.21953052	     45.09334292	      0.00000000	      0.00000000	      1.18473833	    -10.97950536	     -7.96069565	     34.06490548	     45.67810165	      0.00000000	      0.00000000
     32.03592857	     -2.26203077	     -4.34779387	      3.66172458	      1.08532656	      0.92909127	      0.41658197	     10.98895675	     -5.13663918	     -9.66711677	     45.00277678	     45.00277678	      9.64244217	     -9.51235240	     -8.14299711	     19.42583545	     -5.01575934	     -3.00230342	     25.97912165	     25.97912165	     11.73569873	     -9.98672234	      0.03539314	     -8.17101843	      2.47394285	      2.69024354	     15.33368747	    -13.71657590	      4.57662363	     61.87810550	     45.26356933	      0.00000000	      0.00000000	      1.68754314	    -11.55037500	     -5.68231498	     34.19270098	     45.42694770	      0.00000000	      0.00000000
